<?xml version="1.0" encoding="UTF-8"?>
<svg id="Layer_2" data-name="Layer 2" xmlns="http://www.w3.org/2000/svg" viewBox="0 0 1426.61 287.84">
  <defs>
    <style>
      .cls-1 {
        stroke: #7183f5;
      }

      .cls-1, .cls-2 {
        fill: none;
        stroke-miterlimit: 10;
      }

      .cls-2 {
        stroke: #26d07c;
      }
    </style>
  </defs>
  <g id="Layer_1-2" data-name="Layer 1">
    <g>
      <rect class="cls-1" x="639.83" y="1.58" width="786.28" height="141.13" rx="68.62" ry="68.62"/>
      <rect class="cls-1" x=".5" y="144.53" width="786.28" height="141.13" rx="68.62" ry="68.62"/>
      <path class="cls-2" d="M860.26,193.73l8.98-16.13c6.19-11.12,2.74-24.85-7.71-30.66-10.44-5.81-23.93-1.51-30.12,9.61l-43.56,78.28c-.57,1.02-1.03,2.07-1.43,3.12l-8.98,16.13c-6.19,11.12-2.74,24.85,7.71,30.66,10.44,5.81,23.93,1.51,30.12-9.61l43.56-78.28c.57-1.02,1.03-2.07,1.43-3.12Z"/>
      <path class="cls-1" d="M906.42,281.44l52.42-52.42h0c.47-.47.9-.95,1.31-1.45,3.23-3.96,4.63-8.92,4.2-13.75,0-.04,0-.08,0-.12-.02-.21-.05-.42-.08-.63-.01-.09-.02-.19-.03-.28-.02-.15-.05-.31-.08-.46-.03-.15-.05-.3-.07-.44-.02-.09-.04-.17-.06-.26-.04-.21-.09-.43-.14-.64,0-.01,0-.02,0-.04-.66-2.67-1.9-5.22-3.72-7.46-.03-.03-.06-.07-.09-.1-.18-.21-.36-.43-.54-.63-.19-.22-.4-.43-.6-.63-.03-.03-.05-.05-.07-.08l-52.42-52.42c-7.45-7.45-19.53-7.45-26.97,0-7.45,7.45-7.45,19.52,0,26.97l38.93,38.93-38.93,38.93c-7.45,7.45-7.45,19.53,0,26.97,7.45,7.45,19.52,7.45,26.97,0Z"/>
      <path class="cls-1" d="M535.66,50.19l8.98-16.13c6.19-11.12,2.74-24.85-7.71-30.66-10.44-5.81-23.93-1.51-30.12,9.61l-43.56,78.28c-.57,1.02-1.03,2.07-1.43,3.12l-8.98,16.13c-6.19,11.12-2.74,24.85,7.71,30.66,10.44,5.81,23.93,1.51,30.12-9.61l43.56-78.28c.57-1.02,1.03-2.07,1.43-3.12Z"/>
      <path class="cls-2" d="M581.83,137.9l52.42-52.42h0c.47-.47.9-.95,1.31-1.45,3.23-3.96,4.63-8.92,4.2-13.75,0-.04,0-.08,0-.12-.02-.21-.05-.42-.08-.63-.01-.09-.02-.19-.03-.28-.02-.15-.05-.31-.08-.46-.03-.15-.05-.3-.07-.44-.02-.09-.04-.17-.06-.26-.04-.21-.09-.43-.14-.64,0-.01,0-.02,0-.04-.66-2.67-1.9-5.22-3.72-7.46-.03-.03-.06-.07-.09-.1-.18-.21-.36-.43-.54-.63-.19-.22-.4-.43-.6-.63-.03-.03-.05-.05-.07-.08l-52.42-52.42c-7.45-7.45-19.53-7.45-26.97,0-7.45,7.45-7.45,19.52,0,26.97l38.93,38.93-38.93,38.93c-7.45,7.45-7.45,19.53,0,26.97,7.45,7.45,19.52,7.45,26.97,0Z"/>
    </g>
  </g>
</svg>