<?xml version="1.0" encoding="UTF-8"?>
<svg id="Layer_2" data-name="Layer 2" xmlns="http://www.w3.org/2000/svg" viewBox="0 0 336.67 149.77">
  <defs>
    <style>
      .cls-1 {
        stroke: #7183f5;
      }

      .cls-1, .cls-2 {
        fill: none;
        stroke-miterlimit: 10;
      }

      .cls-2 {
        stroke: #26d07c;
      }
    </style>
  </defs>
  <g id="Layer_1-2" data-name="Layer 1">
    <g>
      <path class="cls-1" d="M125.09,143.33l54.49-54.49h0c.48-.48.94-.99,1.36-1.51,3.36-4.12,4.81-9.28,4.36-14.29,0-.04,0-.08,0-.12-.02-.22-.05-.44-.08-.65-.01-.1-.02-.19-.04-.29-.02-.16-.05-.32-.08-.48-.03-.15-.05-.31-.08-.46-.02-.09-.04-.18-.06-.27-.05-.22-.09-.45-.15-.67,0-.01,0-.02,0-.04-.68-2.77-1.97-5.43-3.87-7.76-.03-.04-.06-.07-.09-.11-.18-.22-.37-.44-.57-.66-.2-.22-.41-.44-.63-.66-.03-.03-.05-.05-.08-.08L125.09,6.31c-7.74-7.74-20.3-7.74-28.04,0-7.74,7.74-7.74,20.29,0,28.04l40.47,40.47-40.47,40.47c-7.74,7.74-7.74,20.3,0,28.04,7.74,7.74,20.3,7.74,28.04,0Z"/>
      <path class="cls-2" d="M69.8,46.59l5.27-16.81c3.64-11.59-2.81-23.93-14.4-27.57-11.59-3.64-23.93,2.81-27.57,14.4L7.51,98.17c-.33,1.06-.55,2.13-.72,3.2l-5.27,16.81c-3.64,11.59,2.81,23.93,14.4,27.57,11.59,3.64,23.93-2.81,27.57-14.4l25.6-81.56c.33-1.06.55-2.13.72-3.2Z"/>
      <circle class="cls-2" cx="268.35" cy="81.45" r="67.82"/>
    </g>
  </g>
</svg>