<?xml version="1.0" encoding="UTF-8"?>
<svg id="Layer_1" xmlns="http://www.w3.org/2000/svg" version="1.1" viewBox="0 0 500 316">
  <!-- Generator: Adobe Illustrator 30.2.1, SVG Export Plug-In . SVG Version: 2.1.1 Build 1)  -->
  <defs>
    <style>
      .st0 {
        fill: #0adc8f;
      }
    </style>
  </defs>
  <path class="st0" d="M171.9,156h-53.5c-3.5,0-13.7-5.6-16.7-8-24.1-19.5-9.7-63,20.7-63h49.5v-37.5c0-5.6,6.4-17.5,10.5-21.5,20.9-20.7,57.5-7.7,60.5,21.5-2.9,53.2,3.8,110.4,0,163.1-4.6,64.4-62.7,90.1-120.5,85.5-36.4-2.9-46.5-50.1-15.5-66.6,18.3-9.7,36.3,2.1,54-16,3.5-3.5,11-16.3,11-21v-36.5h0Z"/>
  <path class="st0" d="M329.7,85h49.5c24.1,0,39.3,29.4,29.7,50.7-3.5,7.8-16.9,20.3-25.7,20.3h-53.5v37.5c0,5.9,8.9,18.7,13.5,22.5,16.3,13.2,27.8,5.9,44.5,10.5,37,10.3,32.3,66.4-8.5,69.6-57,4.5-115.9-20.7-120.5-84.5-3.8-53.4,3-111.2,0-165.1,4.6-42.9,71-37.5,71,3v35.5h0Z"/>
  <path class="st0" d="M458.4,85.3c21.1-2.3,38.6,13.3,40.2,34.2-3.4,45.7,4.5,98-.2,142.9s-68.3,44.8-71.9-2.8c-3.4-45.4,2.5-95.1.2-140.9,1.5-16.9,14.6-31.5,31.6-33.3h0Z"/>
  <path class="st0" d="M33.8,85.3c21-2.3,38.7,13.4,40.2,34.2-3.4,45.7,4.5,98-.2,142.9s-68.3,44.8-71.9-2.8c-3.4-45.4,2.5-95.1.2-140.9,1.5-16.9,14.6-31.5,31.6-33.3h0Z"/>
</svg>