<?xml version="1.0" encoding="UTF-8"?>
<svg id="Layer_2" data-name="Layer 2" xmlns="http://www.w3.org/2000/svg" viewBox="0 0 884.04 436.85">
  <g id="Layer_1-2" data-name="Layer 1">
    <g>
      <g>
        <path d="M883.59,409.28c-.09,3.51-.73,6.94-1.93,10.28-1.2,3.34-2.83,6.25-4.88,8.74s-4.39,4.26-7,5.33l-3.34-7.77c1.67-.69,3.2-1.96,4.59-3.82,1.39-1.86,2.51-3.99,3.34-6.39.83-2.4,1.25-4.77,1.25-7.13,0-2.61-.43-5.05-1.28-7.32-.86-2.27-2.09-4.12-3.69-5.56-1.61-1.43-3.5-2.15-5.68-2.15-2.35,0-4.21.77-5.56,2.31-1.35,1.54-2.42,3.49-3.21,5.85-.79,2.35-1.55,4.77-2.28,7.26-1.24,4.54-2.61,8.54-4.11,12.01-1.5,3.47-3.41,6.18-5.75,8.12-2.33,1.95-5.34,2.92-9.02,2.92-3.89,0-7.27-1.1-10.12-3.31-2.85-2.21-5.05-5.1-6.62-8.67s-2.35-7.4-2.35-11.46c0-5.22,1.14-9.99,3.41-14.29,2.27-4.3,5.29-7.42,9.06-9.35l4.3,7.26c-1.76.77-3.28,1.99-4.56,3.66-1.28,1.67-2.29,3.57-3.02,5.69s-1.12,4.27-1.16,6.46c-.04,2.74.36,5.29,1.19,7.64s2.07,4.25,3.69,5.68c1.63,1.44,3.62,2.15,5.97,2.15s4.14-.71,5.36-2.12c1.22-1.41,2.21-3.33,2.96-5.75.75-2.42,1.62-5.15,2.6-8.19,1.24-3.89,2.66-7.56,4.24-10.98,1.59-3.43,3.56-6.19,5.91-8.29,2.36-2.1,5.33-3.12,8.93-3.08,3.85,0,7.22,1.16,10.09,3.47,2.87,2.31,5.06,5.31,6.58,8.99,1.52,3.68,2.21,7.62,2.09,11.82Z"/>
        <path d="M884.04,345.69c0,5.91-1.52,11.3-4.56,16.16-3.04,4.86-7.12,8.74-12.24,11.63-5.12,2.89-10.78,4.34-16.99,4.34-4.71,0-9.11-.83-13.2-2.51-4.09-1.67-7.69-3.97-10.79-6.91-3.11-2.93-5.53-6.35-7.29-10.24-1.76-3.9-2.63-8.05-2.63-12.46,0-4.75.94-9.13,2.82-13.14,1.89-4,4.52-7.45,7.9-10.34,3.38-2.89,7.34-5.08,11.88-6.55s9.44-2.09,14.71-1.83v54.47c4.07-.51,7.71-1.81,10.92-3.89,3.21-2.08,5.75-4.73,7.61-7.97,1.86-3.23,2.82-6.82,2.86-10.76,0-4.28-1.11-8.15-3.34-11.59-2.23-3.45-5.29-6.22-9.19-8.32l2.12-9.12c5.7,2.57,10.35,6.45,13.97,11.63,3.62,5.18,5.43,10.98,5.43,17.41ZM846.4,368.56v-45.67c-3.98.3-7.63,1.51-10.95,3.63-3.32,2.12-5.97,4.85-7.97,8.19-1.99,3.34-2.99,7-2.99,10.98s.97,7.62,2.92,10.92c1.95,3.3,4.58,6,7.9,8.09,3.32,2.1,7.01,3.38,11.08,3.85Z"/>
        <path d="M842.61,246.19h39.76v8.99h-37.96c-3.51,0-6.7.86-9.57,2.57-2.87,1.71-5.16,4.01-6.87,6.87-1.71,2.87-2.57,6.06-2.57,9.57s.86,6.65,2.57,9.54c1.71,2.89,4.01,5.19,6.87,6.91,2.87,1.71,6.06,2.57,9.57,2.57h37.96v8.99h-64.23v-8.99h8.86c-3.25-2.27-5.84-5.22-7.77-8.86s-2.89-7.6-2.89-11.88c0-4.84,1.18-9.25,3.53-13.23,2.35-3.98,5.52-7.15,9.51-9.51,3.98-2.35,8.39-3.53,13.23-3.53Z"/>
        <path d="M883.59,213.5c-.09,3.51-.73,6.94-1.93,10.28-1.2,3.34-2.83,6.25-4.88,8.74-2.06,2.48-4.39,4.26-7,5.33l-3.34-7.77c1.67-.69,3.2-1.96,4.59-3.82,1.39-1.86,2.51-3.99,3.34-6.39.83-2.4,1.25-4.77,1.25-7.13,0-2.61-.43-5.05-1.28-7.32-.86-2.27-2.09-4.12-3.69-5.56-1.61-1.43-3.5-2.15-5.68-2.15-2.35,0-4.21.77-5.56,2.31-1.35,1.54-2.42,3.49-3.21,5.85-.79,2.35-1.55,4.77-2.28,7.26-1.24,4.54-2.61,8.54-4.11,12.01-1.5,3.47-3.41,6.18-5.75,8.12-2.33,1.95-5.34,2.92-9.02,2.92-3.89,0-7.27-1.1-10.12-3.31-2.85-2.21-5.05-5.1-6.62-8.67s-2.35-7.4-2.35-11.46c0-5.22,1.14-9.99,3.41-14.29,2.27-4.3,5.29-7.42,9.06-9.35l4.3,7.26c-1.76.77-3.28,1.99-4.56,3.66-1.28,1.67-2.29,3.57-3.02,5.69s-1.12,4.27-1.16,6.46c-.04,2.74.36,5.29,1.19,7.64s2.07,4.25,3.69,5.68c1.63,1.44,3.62,2.15,5.97,2.15s4.14-.71,5.36-2.12c1.22-1.41,2.21-3.33,2.96-5.75.75-2.42,1.62-5.15,2.6-8.19,1.24-3.89,2.66-7.56,4.24-10.98,1.59-3.43,3.56-6.19,5.91-8.29,2.36-2.1,5.33-3.12,8.93-3.08,3.85,0,7.22,1.16,10.09,3.47,2.87,2.31,5.06,5.31,6.58,8.99,1.52,3.68,2.21,7.62,2.09,11.82Z"/>
        <path d="M884.04,149.91c0,5.91-1.52,11.3-4.56,16.16-3.04,4.86-7.12,8.74-12.24,11.63-5.12,2.89-10.78,4.34-16.99,4.34-4.71,0-9.11-.83-13.2-2.51-4.09-1.67-7.69-3.97-10.79-6.91-3.11-2.93-5.53-6.35-7.29-10.24-1.76-3.9-2.63-8.05-2.63-12.46,0-4.75.94-9.13,2.82-13.14,1.89-4,4.52-7.45,7.9-10.34,3.38-2.89,7.34-5.08,11.88-6.55,4.54-1.48,9.44-2.09,14.71-1.83v54.47c4.07-.51,7.71-1.81,10.92-3.89,3.21-2.08,5.75-4.73,7.61-7.97,1.86-3.23,2.82-6.82,2.86-10.76,0-4.28-1.11-8.15-3.34-11.59-2.23-3.45-5.29-6.22-9.19-8.32l2.12-9.12c5.7,2.57,10.35,6.45,13.97,11.63,3.62,5.18,5.43,10.98,5.43,17.41ZM846.4,172.77v-45.67c-3.98.3-7.63,1.51-10.95,3.63-3.32,2.12-5.97,4.85-7.97,8.19-1.99,3.34-2.99,7-2.99,10.98s.97,7.62,2.92,10.92,4.58,6,7.9,8.09c3.32,2.1,7.01,3.38,11.08,3.85Z"/>
      </g>
      <g>
        <path d="M0,117.17h58.89l73.91,216.32c1,2.61,1.5,4.71,1.5,6.31,0,1.4-.25,2.55-.75,3.45-.5.9-1.35,1.95-2.55,3.16l-4.21,4.21c-2.4,2.4-4.26,5.11-5.56,8.11-1.31,3.01-1.95,6.01-1.95,9.01,0,4.21,1,8.07,3,11.57,2,3.51,4.76,6.26,8.26,8.26,3.5,2,7.36,3,11.57,3s8.06-1,11.57-3c3.5-2,6.26-4.76,8.26-8.26,2-3.5,3-7.36,3-11.57,0-3-.65-6.01-1.95-9.01-1.31-3-3.26-5.71-5.86-8.11l-3.91-3.61c-2.4-2.2-3.61-4.4-3.61-6.61,0-1.4.5-3.4,1.5-6.01l72.71-217.22h56.18l-113.87,313.67h-51.08L0,117.17Z"/>
        <path d="M287.06,0h62.79v63.99h-62.79V0ZM290.97,117.17h55.28v313.67h-55.28V117.17Z"/>
        <path d="M451.54,428.74c-12.42-5.41-22.08-14.27-28.99-26.59-6.91-12.32-10.36-28.39-10.36-48.22v-191.38h-55.28v-45.37h5.41c13.62,0,24.59-2.1,32.9-6.31,8.31-4.21,14.57-10.71,18.78-19.53,4.2-8.81,6.71-20.53,7.51-35.15l1.8-30.95h44.17v71.51c0,2.4-.7,4.36-2.1,5.86-1.4,1.5-3.31,2.25-5.71,2.25h-14.12c-4.41,0-8.46,1.05-12.17,3.16-3.71,2.1-6.61,4.91-8.71,8.41-2.1,3.51-3.16,7.36-3.16,11.57s1.05,8.47,3.16,12.17c2.1,3.71,5.01,6.61,8.71,8.71,3.7,2.1,7.76,3.15,12.17,3.15s8.06-1.05,11.57-3.15c3.5-2.1,6.31-5.01,8.41-8.71,2.1-3.7,3.16-7.76,3.16-12.17v-2.4c0-2.6.75-4.66,2.25-6.16,1.5-1.5,3.46-2.25,5.86-2.25h59.79v45.37h-69.1v187.78c0,14.22,3.56,24.34,10.67,30.34,7.11,6.01,17.07,9.01,29.89,9.01,8.21,0,15.82-.8,22.83-2.4v45.37c-6.21,1.6-11.92,2.71-17.13,3.3-5.21.6-10.92.9-17.13.9-17.63,0-32.65-2.71-45.07-8.11Z"/>
        <path d="M616.33,428.74c-12.42-5.41-22.08-14.27-28.99-26.59-6.91-12.32-10.36-28.39-10.36-48.22v-191.38h-55.28v-45.37h5.41c13.62,0,24.59-2.1,32.9-6.31,8.31-4.21,14.57-10.71,18.78-19.53,4.2-8.81,6.71-20.53,7.51-35.15l1.8-30.95h44.17v71.51c0,2.4-.7,4.36-2.1,5.86-1.4,1.5-3.31,2.25-5.71,2.25h-14.12c-4.41,0-8.46,1.05-12.17,3.16-3.71,2.1-6.61,4.91-8.71,8.41-2.1,3.51-3.16,7.36-3.16,11.57s1.05,8.47,3.16,12.17c2.1,3.71,5.01,6.61,8.71,8.71,3.7,2.1,7.76,3.15,12.17,3.15s8.06-1.05,11.57-3.15c3.5-2.1,6.31-5.01,8.41-8.71,2.1-3.7,3.16-7.76,3.16-12.17v-2.4c0-2.6.75-4.66,2.25-6.16,1.5-1.5,3.46-2.25,5.86-2.25h59.79v45.37h-69.1v187.78c0,14.22,3.56,24.34,10.67,30.34,7.11,6.01,17.07,9.01,29.89,9.01,8.21,0,15.82-.8,22.83-2.4v45.37c-6.21,1.6-11.92,2.71-17.13,3.3-5.21.6-10.92.9-17.13.9-17.63,0-32.65-2.71-45.07-8.11Z"/>
        <path d="M715.93,0h62.79v63.99h-62.79V0ZM719.83,117.17h55.28v313.67h-55.28V117.17Z"/>
      </g>
    </g>
  </g>
</svg>